<svg width="102" height="77" viewBox="0 0 102 77" fill="none" xmlns="http://www.w3.org/2000/svg">
<path d="M18.5172 57.3553L20.5589 67.0049L26.3105 65.788L26.9776 68.9408L17.6528 70.9138L14.944 58.1113L18.5172 57.3553Z" fill="#256AD0"/>
<path d="M38.297 57.0843C39.2298 56.9911 40.0797 57.1155 40.8467 57.4576C41.6137 57.7998 42.2356 58.3265 42.7123 59.0378C43.2007 59.7349 43.496 60.5952 43.5983 61.6188L43.7128 62.7654L36.9691 63.4392C37.1595 63.9044 37.4801 64.2322 37.931 64.4227C38.3819 64.6132 38.8859 64.6806 39.443 64.6249C40.1944 64.5498 40.8319 64.3814 41.3554 64.1198C41.8905 63.8439 42.2863 63.6146 42.5428 63.4319L42.8283 66.2888C42.5121 66.5297 42.0664 66.7836 41.4912 67.0505C40.9288 67.316 40.2784 67.4857 39.5399 67.5595C38.8403 67.6294 38.1484 67.5808 37.4643 67.4136C36.7932 67.2451 36.1765 66.9665 35.6143 66.5777C35.052 66.189 34.5908 65.6986 34.2307 65.1065C33.8692 64.5014 33.649 63.8037 33.5701 63.0133C33.4717 62.0286 33.6084 61.1055 33.9803 60.244C34.3652 59.3811 34.9282 58.664 35.6694 58.0927C36.4235 57.5201 37.2993 57.184 38.297 57.0843ZM38.4755 59.8537C38.048 59.8964 37.6904 60.0499 37.4027 60.3142C37.1138 60.5655 36.9214 60.9315 36.8254 61.4122L40.3431 61.0607C40.2965 60.5943 40.0808 60.2691 39.696 60.0851C39.3229 59.8868 38.9161 59.8097 38.4755 59.8537Z" fill="#256AD0"/>
<path d="M55.3456 56.241C55.8664 56.2459 56.3731 56.3678 56.8657 56.6068C57.3714 56.8329 57.7854 57.1232 58.1076 57.4778L58.1162 56.5599L61.4754 56.5912L61.3824 66.5517L58.0232 66.5204L58.0387 64.8603C57.7862 65.4048 57.4043 65.8635 56.893 66.2364C56.3817 66.6092 55.768 66.7923 55.0518 66.7856C54.3097 66.7787 53.6149 66.5834 52.9674 66.1997C52.3199 65.8161 51.7915 65.2317 51.3821 64.4466C50.9859 63.6486 50.7934 62.6506 50.8046 61.4528C50.815 60.333 51.0257 59.3844 51.4366 58.607C51.8606 57.8297 52.413 57.2423 53.0938 56.845C53.7877 56.4348 54.5384 56.2335 55.3456 56.241ZM56.0181 59.5287C55.5363 59.5242 55.1309 59.7157 54.8017 60.1033C54.4856 60.491 54.325 60.9518 54.32 61.4856C54.3151 62.0194 54.4736 62.4701 54.7957 62.8377C55.1178 63.2053 55.5458 63.3916 56.0796 63.3966C56.3661 63.3993 56.6597 63.3304 56.9605 63.19C57.2614 63.0366 57.5174 62.8111 57.7286 62.5135C57.9528 62.2031 58.0672 61.807 58.0717 61.3253L58.0806 60.3683C57.7964 60.1313 57.4727 59.9329 57.1096 59.7733C56.7595 59.6137 56.3957 59.5322 56.0181 59.5287Z" fill="#256AD0"/>
<path d="M76.6448 61.605C76.4619 61.4802 76.2633 61.3799 76.0489 61.304C75.8489 61.2167 75.6065 61.1574 75.3218 61.1263C74.8687 61.0767 74.4526 61.1688 74.0734 61.4024C73.6942 61.636 73.3705 61.9608 73.1024 62.3768L72.5461 67.4637L69.2066 67.0985L70.2894 57.1966L73.6289 57.5617L73.4357 59.3286C73.8044 58.8318 74.1976 58.4098 74.6155 58.0626C75.0462 57.7167 75.5723 57.5778 76.1936 57.6457C76.5301 57.6825 76.815 57.7726 77.0482 57.916L76.6448 61.605Z" fill="#256AD0"/>
<path d="M88.2239 59.8199L87.9571 61.081C88.3518 60.7253 88.798 60.4404 89.2958 60.2264C89.8064 60.015 90.3865 59.978 91.0361 60.1155C92.0298 60.3257 92.7673 60.8344 93.2486 61.6416C93.7427 62.4516 93.8496 63.519 93.5693 64.8438L92.2957 70.8629L89.0091 70.1675L90.1544 64.6603C90.2568 64.1762 90.1945 63.8103 89.9674 63.5626C89.743 63.3022 89.4652 63.137 89.134 63.0669C88.7773 62.9914 88.4577 63.0236 88.1753 63.1635C87.8955 63.2906 87.6395 63.4627 87.4072 63.6797L86.162 69.5651L82.8754 68.8697L84.9373 59.1245L88.2239 59.8199Z" fill="#256AD0"/>
<path d="M8.75343 30.7462C9.61006 30.5223 10.4684 30.4594 11.3285 30.5576C12.1979 30.6398 13.0153 30.8837 13.7808 31.2892C14.5463 31.6948 15.2124 32.2608 15.7792 32.9875C16.3586 33.7108 16.7849 34.5952 17.0583 35.6408C17.4403 37.1021 17.4245 38.4319 17.011 39.6301C16.5942 40.8158 15.9273 41.7909 15.0101 42.5556C15.6308 42.7163 16.2896 42.7392 16.9863 42.6244C17.6956 42.5062 18.4156 42.3517 19.1463 42.1607L19.9169 45.1085C19.161 45.3061 18.3268 45.4098 17.4142 45.4195C16.5049 45.4419 15.5958 45.3364 14.6869 45.103C13.7905 44.8662 12.9654 44.4898 12.2114 43.9736C11.3547 44.1975 10.4917 44.2684 9.62233 44.1861C8.76225 44.0879 7.94947 43.8361 7.184 43.4306C6.41852 43.0251 5.74609 42.4607 5.1667 41.7373C4.59991 41.0107 4.17985 40.1246 3.90651 39.079C3.63317 38.0334 3.56583 37.0551 3.7045 36.144C3.85576 35.2297 4.16594 34.4084 4.63502 33.6801C5.1041 32.9519 5.69129 32.3408 6.39659 31.8469C7.11119 31.3371 7.8968 30.9702 8.75343 30.7462ZM9.61791 34.0531C9.05103 34.2013 8.585 34.4779 8.21983 34.8829C7.85467 35.2879 7.60567 35.7769 7.47286 36.35C7.34934 36.9071 7.36992 37.5007 7.53458 38.1305C7.69924 38.7604 7.97342 39.2944 8.3571 39.7324C8.75008 40.1545 9.2049 40.4529 9.72156 40.6273C10.2382 40.8018 10.78 40.815 11.3469 40.6668C11.9138 40.5186 12.3798 40.242 12.745 39.8369C13.1227 39.4287 13.3734 38.9459 13.4969 38.3888C13.6171 37.819 13.5949 37.2192 13.4302 36.5893C13.2655 35.9594 12.993 35.4318 12.6126 35.0063C12.2289 34.5683 11.7725 34.2637 11.2432 34.0925C10.7266 33.918 10.1848 33.9049 9.61791 34.0531Z" fill="#256AD0"/>
<path d="M34.1437 29.1752L35.0539 35.082C35.1907 35.97 35.1018 36.761 34.7872 37.455C34.4854 38.1471 34.0064 38.7149 33.3502 39.1586C32.694 39.6023 31.909 39.8945 30.9953 40.0353C30.0816 40.1761 29.2451 40.1337 28.4857 39.9082C27.7264 39.6827 27.0922 39.2863 26.5833 38.7192C26.0871 38.1501 25.7707 37.4216 25.6338 36.5336L24.7236 30.6268L28.0438 30.1152L28.8365 35.1311C28.9396 35.8003 29.1179 36.2734 29.3714 36.5505C29.6378 36.8257 30.0155 36.9256 30.5045 36.8502C30.9935 36.7749 31.3172 36.5669 31.4755 36.2263C31.6467 35.8837 31.6807 35.3779 31.5776 34.7087L30.8235 29.6868L34.1437 29.1752Z" fill="#256AD0"/>
<path d="M45.4893 22.4576C45.866 22.4308 46.2166 22.4971 46.5413 22.6568C46.879 22.8154 47.1563 23.0437 47.3733 23.3415C47.5895 23.6263 47.7109 23.9571 47.7378 24.3337C47.7637 24.6974 47.6904 25.042 47.5178 25.3676C47.3452 25.6932 47.103 25.9585 46.7913 26.1635C46.4926 26.3675 46.1549 26.483 45.7782 26.5098C45.2197 26.5497 44.7188 26.3896 44.2754 26.0296C43.8311 25.6566 43.589 25.1908 43.5492 24.6323C43.5085 24.0609 43.682 23.5655 44.0698 23.1462C44.4577 22.727 44.9308 22.4974 45.4893 22.4576ZM47.7763 27.8947L48.4846 37.8304L45.1338 38.0693L44.6199 30.861L43.0029 30.9763L42.8084 28.2489L47.7763 27.8947Z" fill="#256AD0"/>
<path d="M65.4648 27.5644L65.4593 28.2675L61.0914 34.7566L65.603 34.7923L65.5814 37.5266L56.4215 37.4541L56.4271 36.751L60.5801 30.2602L56.6739 30.2293L56.6956 27.495L65.4648 27.5644Z" fill="#256AD0"/>
<path d="M91.0164 27.5501C91.8352 27.7641 92.5184 28.111 93.066 28.5906C93.6261 29.0735 94.023 29.6146 94.2566 30.214C94.4902 30.8134 94.5312 31.4029 94.3797 31.9823C94.2282 32.5618 93.9486 33.0136 93.5409 33.3377C93.1365 33.6492 92.6743 33.8984 92.1543 34.0855C91.6503 34.2633 91.1575 34.4238 90.6759 34.5671C90.9046 35.0306 91.1506 35.5054 91.4138 35.9915C91.6528 35.7982 91.8791 35.6017 92.0929 35.4018C92.3192 35.2053 92.5362 34.9929 92.744 34.7645L96.1075 35.6438C95.555 36.2127 94.9998 36.7405 94.4419 37.2272C93.8999 37.7046 93.3678 38.1442 92.8455 38.546C93.2084 39.1657 93.5806 39.8014 93.962 40.4529C94.3435 41.1044 94.7406 41.7735 95.1533 42.4601L91.2418 41.4375C91.1115 41.215 90.9859 41.0005 90.8649 40.7939C90.7473 40.5747 90.6296 40.3556 90.5119 40.1364C89.9438 40.4051 89.3181 40.5847 88.6349 40.6753C87.9551 40.7532 87.1743 40.677 86.2924 40.4464C85.461 40.2291 84.7556 39.8899 84.1763 39.4289C83.597 38.9679 83.1859 38.4298 82.943 37.8145C82.7033 37.1866 82.6758 36.5199 82.8602 35.8145C83.0117 35.235 83.2694 34.764 83.6333 34.4016C84.0005 34.0265 84.4268 33.7342 84.9123 33.5247C85.4136 33.3058 85.9382 33.1267 86.4861 32.9873C86.2043 32.4695 85.9966 31.9509 85.8632 31.4315C85.7457 30.9028 85.7627 30.3488 85.9142 29.7693C86.0657 29.1898 86.3837 28.6942 86.8681 28.2825C87.3652 27.8741 87.9698 27.5948 88.682 27.4445C89.4068 27.2975 90.185 27.3327 91.0164 27.5501ZM89.2127 30.9747C89.1666 31.1511 89.1739 31.3549 89.2345 31.5861C89.3078 31.8206 89.4093 32.0759 89.539 32.3521C89.9 32.258 90.1997 32.1412 90.4381 32.0017C90.6923 31.8528 90.8508 31.6587 90.9133 31.4193C90.9693 31.2052 90.9385 30.9885 90.8208 30.7693C90.7158 30.5534 90.5309 30.4109 90.2664 30.3418C89.9893 30.2693 89.7583 30.3032 89.5737 30.4433C89.389 30.5834 89.2687 30.7606 89.2127 30.9747ZM86.5304 36.3702C86.4382 36.7229 86.4933 37.0267 86.6959 37.2815C86.9017 37.5238 87.1558 37.6844 87.4581 37.7634C87.7731 37.8458 88.0618 37.8741 88.3242 37.8485C88.6025 37.8136 88.8797 37.7313 89.1558 37.6016C88.9544 37.2394 88.7467 36.8756 88.5327 36.5101C88.3346 36.1353 88.1256 35.7509 87.9056 35.3569C87.5253 35.4729 87.2144 35.6069 86.9727 35.7591C86.747 35.9019 86.5995 36.1056 86.5304 36.3702Z" fill="#256AD0"/>
</svg>
