<svg width="114" height="77" viewBox="0 0 114 77" fill="none" xmlns="http://www.w3.org/2000/svg">
<path d="M21.5172 57.3553L23.5589 67.0049L29.3105 65.788L29.9776 68.9408L20.6528 70.9138L17.944 58.1113L21.5172 57.3553Z" fill="#256AD0"/>
<path d="M41.297 57.0843C42.2298 56.9911 43.0797 57.1155 43.8467 57.4576C44.6137 57.7998 45.2356 58.3265 45.7123 59.0378C46.2007 59.7349 46.496 60.5952 46.5983 61.6188L46.7128 62.7654L39.9691 63.4392C40.1595 63.9044 40.4801 64.2322 40.931 64.4227C41.3819 64.6132 41.8859 64.6806 42.443 64.6249C43.1944 64.5498 43.8319 64.3814 44.3554 64.1198C44.8905 63.8439 45.2863 63.6146 45.5428 63.4319L45.8283 66.2888C45.5121 66.5297 45.0664 66.7836 44.4912 67.0505C43.9288 67.316 43.2784 67.4857 42.5399 67.5595C41.8403 67.6294 41.1484 67.5808 40.4643 67.4136C39.7932 67.2451 39.1765 66.9665 38.6143 66.5777C38.052 66.189 37.5908 65.6986 37.2307 65.1065C36.8692 64.5014 36.649 63.8037 36.5701 63.0133C36.4717 62.0286 36.6084 61.1055 36.9803 60.244C37.3652 59.3811 37.9282 58.664 38.6694 58.0927C39.4235 57.5201 40.2993 57.184 41.297 57.0843ZM41.4755 59.8537C41.048 59.8964 40.6904 60.0499 40.4027 60.3142C40.1138 60.5655 39.9214 60.9315 39.8254 61.4122L43.3431 61.0607C43.2965 60.5943 43.0808 60.2691 42.696 60.0851C42.3229 59.8868 41.9161 59.8097 41.4755 59.8537Z" fill="#256AD0"/>
<path d="M58.3456 56.241C58.8664 56.2459 59.3731 56.3678 59.8657 56.6068C60.3714 56.8329 60.7854 57.1232 61.1076 57.4778L61.1162 56.5599L64.4754 56.5912L64.3824 66.5517L61.0232 66.5204L61.0387 64.8603C60.7862 65.4048 60.4043 65.8635 59.893 66.2364C59.3817 66.6092 58.768 66.7923 58.0518 66.7856C57.3097 66.7787 56.6149 66.5834 55.9674 66.1997C55.3199 65.8161 54.7915 65.2317 54.3821 64.4466C53.9859 63.6486 53.7934 62.6506 53.8046 61.4528C53.815 60.333 54.0257 59.3844 54.4366 58.607C54.8606 57.8297 55.413 57.2423 56.0938 56.845C56.7877 56.4348 57.5384 56.2335 58.3456 56.241ZM59.0181 59.5287C58.5363 59.5242 58.1309 59.7157 57.8017 60.1033C57.4856 60.491 57.325 60.9518 57.32 61.4856C57.3151 62.0194 57.4736 62.4701 57.7957 62.8377C58.1178 63.2053 58.5458 63.3916 59.0796 63.3966C59.3661 63.3993 59.6597 63.3304 59.9605 63.19C60.2614 63.0366 60.5174 62.8111 60.7286 62.5135C60.9528 62.2031 61.0672 61.807 61.0717 61.3253L61.0806 60.3683C60.7964 60.1313 60.4727 59.9329 60.1096 59.7733C59.7595 59.6137 59.3957 59.5322 59.0181 59.5287Z" fill="#256AD0"/>
<path d="M79.6448 61.605C79.4619 61.4802 79.2633 61.3799 79.0489 61.304C78.8489 61.2167 78.6065 61.1574 78.3218 61.1263C77.8687 61.0767 77.4526 61.1688 77.0734 61.4024C76.6942 61.636 76.3705 61.9608 76.1024 62.3768L75.5461 67.4637L72.2066 67.0985L73.2894 57.1966L76.6289 57.5617L76.4357 59.3286C76.8044 58.8318 77.1976 58.4098 77.6155 58.0626C78.0462 57.7167 78.5723 57.5778 79.1936 57.6457C79.5301 57.6825 79.815 57.7726 80.0482 57.916L79.6448 61.605Z" fill="#256AD0"/>
<path d="M91.2239 59.8199L90.9571 61.081C91.3518 60.7253 91.798 60.4404 92.2958 60.2264C92.8064 60.015 93.3865 59.978 94.0361 60.1155C95.0298 60.3257 95.7673 60.8344 96.2486 61.6416C96.7427 62.4516 96.8496 63.519 96.5693 64.8438L95.2957 70.8629L92.0091 70.1675L93.1544 64.6603C93.2568 64.1762 93.1945 63.8103 92.9674 63.5626C92.743 63.3022 92.4652 63.137 92.134 63.0669C91.7773 62.9914 91.4577 63.0236 91.1753 63.1635C90.8955 63.2906 90.6395 63.4627 90.4072 63.6797L89.162 69.5651L85.8754 68.8697L87.9373 59.1245L91.2239 59.8199Z" fill="#256AD0"/>
<path d="M8.75343 30.7462C9.61006 30.5223 10.4684 30.4594 11.3285 30.5576C12.1979 30.6398 13.0153 30.8837 13.7808 31.2892C14.5463 31.6948 15.2124 32.2608 15.7792 32.9875C16.3586 33.7108 16.7849 34.5952 17.0583 35.6408C17.4403 37.1021 17.4245 38.4319 17.011 39.6301C16.5942 40.8158 15.9273 41.7909 15.0101 42.5556C15.6308 42.7163 16.2896 42.7392 16.9863 42.6244C17.6956 42.5062 18.4156 42.3517 19.1463 42.1607L19.9169 45.1085C19.161 45.3061 18.3268 45.4098 17.4142 45.4195C16.5049 45.4419 15.5958 45.3364 14.6869 45.103C13.7905 44.8662 12.9654 44.4898 12.2114 43.9736C11.3547 44.1975 10.4917 44.2684 9.62233 44.1861C8.76225 44.0879 7.94947 43.8361 7.184 43.4306C6.41852 43.0251 5.74609 42.4607 5.1667 41.7373C4.59991 41.0107 4.17985 40.1246 3.90651 39.079C3.63317 38.0334 3.56583 37.0551 3.7045 36.144C3.85576 35.2297 4.16594 34.4084 4.63502 33.6801C5.1041 32.9519 5.69129 32.3408 6.39659 31.8469C7.11119 31.3371 7.8968 30.9702 8.75343 30.7462ZM9.61791 34.0531C9.05103 34.2013 8.585 34.4779 8.21983 34.8829C7.85467 35.2879 7.60567 35.7769 7.47286 36.35C7.34934 36.9071 7.36992 37.5007 7.53458 38.1305C7.69924 38.7604 7.97342 39.2944 8.3571 39.7324C8.75008 40.1545 9.2049 40.4529 9.72156 40.6273C10.2382 40.8018 10.78 40.815 11.3469 40.6668C11.9138 40.5186 12.3798 40.242 12.745 39.8369C13.1227 39.4287 13.3734 38.9459 13.4969 38.3888C13.6171 37.819 13.5949 37.2192 13.4302 36.5893C13.2655 35.9594 12.993 35.4318 12.6126 35.0063C12.2289 34.5683 11.7725 34.2637 11.2432 34.0925C10.7266 33.918 10.1848 33.9049 9.61791 34.0531Z" fill="#256AD0"/>
<path d="M34.1437 29.1752L35.0539 35.082C35.1907 35.97 35.1018 36.761 34.7872 37.455C34.4854 38.1471 34.0064 38.7149 33.3502 39.1586C32.694 39.6023 31.909 39.8945 30.9953 40.0353C30.0816 40.1761 29.2451 40.1337 28.4857 39.9082C27.7264 39.6827 27.0922 39.2863 26.5833 38.7192C26.0871 38.1501 25.7707 37.4216 25.6338 36.5336L24.7236 30.6268L28.0438 30.1152L28.8365 35.1311C28.9396 35.8003 29.1179 36.2734 29.3714 36.5505C29.6378 36.8257 30.0155 36.9256 30.5045 36.8502C30.9935 36.7749 31.3172 36.5669 31.4755 36.2263C31.6467 35.8837 31.6807 35.3779 31.5776 34.7087L30.8235 29.6868L34.1437 29.1752Z" fill="#256AD0"/>
<path d="M45.4893 22.4576C45.866 22.4308 46.2166 22.4971 46.5413 22.6568C46.879 22.8154 47.1563 23.0437 47.3733 23.3415C47.5895 23.6263 47.7109 23.9571 47.7378 24.3337C47.7637 24.6974 47.6904 25.042 47.5178 25.3676C47.3452 25.6932 47.103 25.9585 46.7913 26.1635C46.4926 26.3675 46.1549 26.483 45.7782 26.5098C45.2197 26.5497 44.7188 26.3896 44.2754 26.0296C43.8311 25.6566 43.589 25.1908 43.5492 24.6323C43.5085 24.0609 43.682 23.5655 44.0698 23.1462C44.4577 22.727 44.9308 22.4974 45.4893 22.4576ZM47.7763 27.8947L48.4846 37.8304L45.1338 38.0693L44.6199 30.861L43.0029 30.9763L42.8084 28.2489L47.7763 27.8947Z" fill="#256AD0"/>
<path d="M65.4648 27.5644L65.4593 28.2675L61.0914 34.7566L65.603 34.7923L65.5814 37.5266L56.4215 37.4541L56.4271 36.751L60.5801 30.2602L56.6739 30.2293L56.6956 27.495L65.4648 27.5644Z" fill="#256AD0"/>
<path d="M83.1113 28.8492L83.0428 29.549L78.1117 35.6211L82.6019 36.0604L82.3357 38.7818L73.219 37.8898L73.2875 37.19L78.0048 31.097L74.1172 30.7166L74.3834 27.9952L83.1113 28.8492Z" fill="#256AD0"/>
<path d="M103.016 29.5501C103.835 29.7641 104.518 30.111 105.066 30.5906C105.626 31.0735 106.023 31.6146 106.257 32.214C106.49 32.8134 106.531 33.4029 106.38 33.9823C106.228 34.5618 105.949 35.0136 105.541 35.3377C105.137 35.6492 104.674 35.8984 104.154 36.0855C103.65 36.2633 103.158 36.4238 102.676 36.5671C102.905 37.0306 103.151 37.5054 103.414 37.9915C103.653 37.7982 103.879 37.6017 104.093 37.4018C104.319 37.2053 104.536 36.9929 104.744 36.7645L108.108 37.6438C107.555 38.2127 107 38.7405 106.442 39.2272C105.9 39.7046 105.368 40.1442 104.846 40.546C105.208 41.1657 105.581 41.8014 105.962 42.4529C106.344 43.1044 106.741 43.7735 107.153 44.4601L103.242 43.4375C103.112 43.215 102.986 43.0005 102.865 42.7939C102.747 42.5747 102.63 42.3556 102.512 42.1364C101.944 42.4051 101.318 42.5847 100.635 42.6753C99.9552 42.7532 99.1743 42.677 98.2925 42.4464C97.4611 42.2291 96.7557 41.8899 96.1764 41.4289C95.597 40.9679 95.1859 40.4298 94.943 39.8145C94.7034 39.1866 94.6758 38.5199 94.8602 37.8145C95.0117 37.235 95.2694 36.764 95.6334 36.4016C96.0006 36.0265 96.4269 35.7342 96.9124 35.5247C97.4137 35.3058 97.9383 35.1267 98.4862 34.9873C98.2043 34.4695 97.9967 33.9509 97.8633 33.4315C97.7458 32.9028 97.7628 32.3488 97.9143 31.7693C98.0658 31.1898 98.3837 30.6942 98.8682 30.2825C99.3653 29.8741 99.9699 29.5948 100.682 29.4445C101.407 29.2975 102.185 29.3327 103.016 29.5501ZM101.213 32.9747C101.167 33.1511 101.174 33.3549 101.235 33.5861C101.308 33.8206 101.409 34.0759 101.539 34.3521C101.9 34.258 102.2 34.1412 102.438 34.0017C102.692 33.8528 102.851 33.6587 102.913 33.4193C102.969 33.2052 102.939 32.9885 102.821 32.7693C102.716 32.5534 102.531 32.4109 102.266 32.3418C101.989 32.2693 101.758 32.3032 101.574 32.4433C101.389 32.5834 101.269 32.7606 101.213 32.9747ZM98.5304 38.3702C98.4382 38.7229 98.4934 39.0267 98.6959 39.2815C98.9018 39.5238 99.1559 39.6844 99.4582 39.7634C99.7731 39.8458 100.062 39.8741 100.324 39.8485C100.603 39.8136 100.88 39.7313 101.156 39.6016C100.954 39.2394 100.747 38.8756 100.533 38.5101C100.335 38.1353 100.126 37.7509 99.9056 37.3569C99.5254 37.4729 99.2145 37.6069 98.9728 37.7591C98.747 37.9019 98.5996 38.1056 98.5304 38.3702Z" fill="#256AD0"/>
</svg>
